<?xml version="1.0" encoding="UTF-8"?>
<svg id="Capa_1" data-name="Capa 1" xmlns="http://www.w3.org/2000/svg" viewBox="0 0 1080 1080">
  <defs>
    <style>
      .cls-1 {
        fill: #fff;
      }

      .cls-2 {
        fill: #0c77bd;
      }
    </style>
  </defs>
  <rect class="cls-2" y=".40449" width="1082.02247" height="1079.59551" rx="109.82022" ry="109.82022"/>
  <path class="cls-1" d="M550.38667,878.24382c-18.94108-14.18018-26.42239-36.61531-36.72229-56.53644-6.37691-12.33364-13.55851-21.86569-20.57273-33.76359l-91.06499-154.46929c-45.03356,27.40144-86.15948,52.06793-136.07952,78.547l1.09525-358.59688,143.81159,248.67328,115.70785-64.61924,1.99127-335.7225,144.83992,249.53553,140.65984-78.32038-2.55241,275.17292c-.26037,28.07024,2.94368,53.71738-.22065,83.74726l-146.21453-248.48401-113.5067,65.48997-.55118,204.41358-.62073,124.93277ZM652.96472,463.18025c-33.96497-62.19983-64.886-117.47851-101.94584-174.00637l-.10206,233.83846,102.0479-59.83209ZM788.30823,645.01058l-.01759-231.49021-102.69785,58.23952c34.65393,59.15618,64.81319,117.15393,102.71544,173.25068ZM391.72004,614.14218l-100.97878-173.43252-.24822,230.89943,101.227-57.46691ZM526.04401,797.1705l.98157-233.95284-104.03698,59.45791,103.05542,174.49492Z"/>
</svg>