<?xml version="1.0" encoding="UTF-8"?>
<svg id="Capa_1" data-name="Capa 1" xmlns="http://www.w3.org/2000/svg" viewBox="0 0 3337.4951 714.39434">
  <defs>
    <style>
      .cls-1 {
        fill: #045ea9;
      }

      .cls-2 {
        fill: #0779bd;
      }

      .cls-3 {
        fill: #040404;
      }

      .cls-4 {
        fill: #101010;
      }
    </style>
  </defs>
  <rect class="cls-3" x="703.9419" width="8.81968" height="714.39434"/>
  <g>
    <path class="cls-3" d="M2240.33352,500.836l-157.39018,1.24954c-1.95968,26.26041-1.97084,49.95145-.00783,77.92728l184.04698.77425c2.51653,20.66334,2.07596,40.61513.42857,63.70846l-264.62193.17216.29196-343.30195,258.60887.47295c.53669,22.20057,1.38265,41.93154-.36482,62.90751l-178.2258.67407c-2.29957,24.81076-2.09582,47.04416-.13295,73.42456l156.81223,1.1374c2.30113,20.2454,1.54681,39.72357.55489,60.85377Z"/>
    <path class="cls-3" d="M1608.73878,500.41043l-157.48993,1.30721c-3.43389,24.78744-.76135,49.20598-1.71985,78.14049l186.307.95068c.73361,21.90228,1.37297,42.08381-.27828,63.85898l-264.81621-.17172.083-343.04604,257.97546-.06945c2.21089,22.1245,1.47034,41.64433.55878,63.47176l-178.97216.71124-.8202,73.13561,159.27977,1.09479-.10738,60.61646Z"/>
    <path class="cls-3" d="M2417.04902,546.81805c45.28168,51.47487,124.36507,46.94667,168.14425-3.02947,19.00043,11.73165,32.19269,28.48203,51.76436,44.56971-35.11781,45.4873-90.33455,62.59871-146.71208,61.99017-102.52836-1.10669-180.23002-78.05261-180.62075-176.50678-.39601-99.78408,77.97799-176.45403,180.66875-178.19723,56.09241-.95218,110.21823,16.04345,146.79926,60.82181l-51.02073,46.27643c-44.09709-50.23018-123.84805-54.71172-169.16175-3.34777-35.46724,40.2028-36.84868,105.37697.13868,147.42312Z"/>
    <path class="cls-3" d="M2840.83304,644.4626l-78.77565.22349-.20648-277.19773-109.03295-1.67133c-1.2497-21.89991-1.35155-42.42429.29851-64.38171l298.00627.47507c.01793,24.63881,1.69324,44.18092-.89884,64.37512l-108.24831.74329-1.14255,277.43379Z"/>
    <path class="cls-3" d="M1850.19609,643.08053c-27.10217,3.11332-51.50589,1.9816-79.40408.74369l-.39014-276.73796-108.29196-1.01812-.71472-64.30306,297.69308-.42428c1.65426,22.14612,1.66698,42.22975-.03659,64.65648l-108.79762,1.35106-.05796,275.73218Z"/>
    <path class="cls-3" d="M3219.9802,571.53502l-157.99897-.30274-31.54483,72.50776c-26.14613,2.01792-52.24557,1.4735-80.92321.1388l151.75292-341.56609c26.99839-1.82708,51.66608-1.48894,79.46129-.24798l152.78477,341.90393-82.28196.51799-31.25-72.95167ZM3193.59706,508.263l-53.3479-126.5402-53.22676,127.89896c36.8666.99682,70.32993,3.86456,106.57466-1.35876Z"/>
    <path class="cls-3" d="M1276.07652,578.85901c-36.40028,42.98225-85.84479,64.59516-140.44871,64.84255l-170.06911.77052-.03821-342.87435,166.22712.27863c53.38746.08949,101.79953,20.00505,138.40995,58.36651,51.4093,61.88394,54.64691,151.83545,5.91896,218.61613ZM1230.26298,469.36781c-1.65079-55.355-38.45222-95.44663-91.89021-100.95574-30.70513-3.16549-61.4826-1.18888-93.47592-.82263l.33555,211.55931c32.84982.27351,61.51987,1.73783,90.67158-.959,57.75317-5.34274,96.14064-49.07903,94.35899-108.82195Z"/>
  </g>
  <g>
    <path class="cls-4" d="M1303.03385,226.01692c-19.67847,21.69682-37.78785-39.88412-57.19147-48.28401-17.21436-7.45215-38.17277-.01-56.52905-1.74337-3.1438,18.09272-.41919,31.75449-1.52174,49.65656-.36955,6.00041-17.3294,5.34336-17.33097.47236l-.05363-166.27068c46.12866-.42237,121.24927-12.25014,131.63825,44.53285,5.43786,29.72165-6.54251,54.00395-35.61153,67.33906l36.60014,54.29723ZM1251.72847,157.75182c24.10837-4.35887,34.89104-24.65492,33.46988-44.24822-3.36974-46.45802-58.60851-38.72715-96.52451-38.17295l-.17299,83.62782c21.44944,2.06712,41.46649,2.72782,63.22761-1.20666Z"/>
    <path class="cls-4" d="M1877.17077,144.10667c0,48.93633-39.67073,88.60706-88.60706,88.60706s-88.60706-39.67073-88.60706-88.60706,39.67073-88.60706,88.60706-88.60706,88.60706,39.67073,88.60706,88.60706ZM1859.83277,144.20665c0-39.42126-31.95724-71.3785-71.3785-71.3785s-71.3785,31.95724-71.3785,71.3785,31.95724,71.3785,71.3785,71.3785,71.3785-31.95724,71.3785-71.3785Z"/>
    <path class="cls-4" d="M1101.78967,200.14673c1.55884-20.12739-2.25924-36.4479,1.61235-54.05031.76896-3.49614,12.3522-3.38574,15.61171-.46958l-.13404,63.0449c-32.15285,27.05066-79.40834,29.89023-114.87177,6.61041-25.22801-16.56082-37.57904-43.86783-37.29298-71.93524.27986-27.4591,12.76542-55.24702,38.05142-71.17615,52.17323-32.86697,123.13951-1.16123,110.70688,15.12085-2.34005,3.06459-7.10825,5.92016-12.33995,1.97228-36.18875-27.30831-90.25056-18.08516-111.18342,23.28335-15.78735,31.1997-5.44026,67.44125,18.83124,86.63853,26.19664,20.71995,65.33064,20.99172,91.00857.96096Z"/>
    <path class="cls-4" d="M1559.46126,175.57319c-5.49081,16.96956-.20684,36.11329-3.04884,51.53778-2.09972,3.74337-13.43286,3.58464-17.2304.1941l.14471-167.41552c27.48483-.98906,53.87912-2.17937,80.63284.69154,31.65444,3.3968,52.35965,27.61299,52.64162,56.26881.29264,29.73988-19.95108,53.14157-51.97139,57.41091-18.90363,2.52046-36.86175.15427-61.16854,1.31237ZM1614.68115,158.75479c27.92968-2.64349,41.50883-22.94018,39.45601-46.3362-3.97629-45.31789-58.04109-37.39541-95.92869-37.29517-1.92116,28.68724-1.56443,54.91114-.17307,83.75939,19.58683,1.48101,36.84875,1.74574,56.64575-.12801Z"/>
    <path class="cls-4" d="M1467.90493,63.47673c.08564-6.8842,13.35126-5.5365,16.73506-1.929l-.62223,105.78307c-.2383,40.51246-31.29117,64.6096-70.18387,64.15509-37.67687-.44031-67.21963-24.59555-68.43486-64.31606-1.06597-34.84163-1.58006-69.49948.1553-105.21589.21161-4.35532,14.58784-4.09102,16.27227-.25235l1.62236,105.42222c.45708,29.70113,22.17489,46.98609,50.39046,47.54655,30.28743.60162,52.41891-18.8259,52.79594-49.13475l1.26958-102.05888Z"/>
  </g>
  <g>
    <path class="cls-2" d="M329.89244,184.86614c13.4694,25.70183,34.28217,47.03028,45.48752,74.98512l130.18912-71.75455-1.37168,334.28981-136.47213-231.79555-107.69074,62.65885c-.42415,6.12059,3.91718,11.00222,3.89332,17.29553l-1.10224,290.8109-136.83159-231.47999c-40.70741,21.51977-90.79341,34.78552-114.94122,63.97971-7.66274-12.87543-4.20706-28.62944-.45537-44.06512,5.48782,5.16197,7.88815,7.52532,12.5969,8.41603,5.19121.98196,10.28845.95433,16.27563-2.60526l75.98632-45.17643-20.03781-40.33413c5.33148-1.37368,10.26228-3.95789,14.12077-7.91694,5.88171,12.72795,20.01562,22.05767,25.39864,37.24181l104.87726-60.0926,1.59105-39.81288c4.20383-2.01109,3.81864,4.72161,3.40196,8.79239-.67942,6.6376,2.40238,10.77998,8.04487,9.77378,13.50591-2.40847-1.44431-67.45267,10.03527-67.07443l.28029,73.75295,92.69658-52.29118-31.85256-60.80313c13.63929.85229-4.8336-9.18453-1.96242-24.1188.46386-2.41273,4.34742-2.7045,7.84225-2.67588ZM481.07235,436.6525l-.09853-211.39201-93.24492,55.18831,93.34345,156.20371ZM238.82445,577.46443l1.84118-213.39082-95.01784,54.61787,93.17666,158.77295Z"/>
    <path class="cls-1" d="M109.53924,362.17412c-3.85849,3.95905-8.78929,6.54326-14.12077,7.91694L24.22312,253.66374l-1.02879,204.54314c-4.70875-.8907-7.10908-3.25406-12.5969-8.41603-3.75169,15.43568-7.20738,31.18969.45537,44.06512l-5.90052,7.13361c-.57016.68931-5.16475-1.52638-5.15225-3.60102L1.96934,170.50292c37.84463,67.89684,77.63577,126.89413,107.5699,191.67121Z"/>
    <path class="cls-1" d="M329.89244,184.86614c-3.49484-.02861-7.3784.26316-7.84225,2.67588-2.87118,14.93427,15.6017,24.97109,1.96242,24.1188l-56.76076-96.06747c.6349-6.5019-4.88413-6.06711-4.50243.10416-.11827.49445-.20238,1.59723-.08102,3.51867-7.61015,8.98629-6.48617,26.19901.18518,35.48706l.03472,96.29895c-11.47958-.37825,3.47064,64.66596-10.03527,67.07443-5.64249,1.00621-8.72428-3.13618-8.04487-9.77378.41668-4.07078.80187-10.80348-3.40196-8.79239l.82074-269.72203c33.13853,54.92542,60.98063,104.15857,87.6655,155.07772Z"/>
    <path class="cls-2" d="M262.85357,154.70324c-6.67135-9.28805-7.79533-26.50077-.18518-35.48706.66615,10.54667.17999,21.09487.18518,35.48706Z"/>
    <path class="cls-2" d="M267.25184,115.59335c-.78001,1.79465-2.08525,2.44045-4.50243.10416-.3817-6.17128,5.13733-6.60606,4.50243-.10416Z"/>
  </g>
</svg>