<?xml version="1.0" encoding="UTF-8"?>
<svg id="Capa_1" data-name="Capa 1" xmlns="http://www.w3.org/2000/svg" viewBox="0 0 1080 1080">
  <defs>
    <style>
      .cls-1 {
        fill: #030303;
      }

      .cls-2 {
        fill: #0c77bd;
      }

      .cls-3 {
        fill: #fdfdfd;
      }
    </style>
  </defs>
  <path class="cls-3" d="M224.73919,527.01067l-28.05099,16.44668.02805-64.27767c10.18703,15.53841,18.68663,30.73345,28.02294,47.83098Z"/>
  <path class="cls-3" d="M261.9425,576.99231c-10.41859-15.41991-18.70879-31.36237-28.23449-47.62326l28.22965-16.00892.00484,63.63218Z"/>
  <path class="cls-2" d="M196.54247,641.10361c-5.20654-3.89786-7.26301-10.06484-10.09425-15.54077-1.75289-3.39028-3.72697-6.01046-5.65504-9.28096l-25.032-42.46062c-12.37886,7.53213-23.68358,14.31247-37.40563,21.59105l.30106-98.57135,39.53102,68.35548,31.80585-17.76258.54736-92.28362,39.81369,68.59249,38.66467-21.52876-.70161,75.63971c-.07157,7.71597.80916,14.76587-.06065,23.0205l-40.19154-68.30345-31.2008,18.00193-.15151,56.18934-.17063,34.3416ZM224.73919,527.01067c-9.33631-17.09753-17.83591-32.29257-28.02294-47.83098l-.02805,64.27767,28.05099-16.44668ZM261.9425,576.99231l-.00484-63.63218-28.22965,16.00892c9.5257,16.26089,17.81589,32.20335,28.23449,47.62326ZM152.92808,568.50718l-27.75711-47.67324-.06823,63.46979,27.82534-15.79654ZM189.85114,618.81813l.26981-64.30911-28.59775,16.34383,28.32794,47.96528Z"/>
  <polygon class="cls-3" points="189.85114 618.81813 161.5232 570.85285 190.12096 554.50902 189.85114 618.81813"/>
  <polygon class="cls-3" points="152.92808 568.50718 125.10274 584.30372 125.17097 520.83394 152.92808 568.50718"/>
  <path class="cls-3" d="M437.91074,547.58091c-.15633,8.98987-4.00934,16.74474-12.96531,18.33627-5.96538,1.06008-12.18799,1.09526-18.14141.38603l-.01821-37.37635c5.15206-.6384,10.39781-.44989,15.53319-.13569,10.06834.616,15.77039,8.51607,15.59174,18.78975Z"/>
  <g>
    <path class="cls-1" d="M530.46512,555.0921l-34.61374.49898c-.79113,3.25976-.62935,6.4228-.12377,9.9724l45.65186.24706c.65738,5.75777.8436,11.36224-.17328,17.15464l-67.75541-.20968.33469-70.54216,67.51532-.01097c1.0833,5.5288.75978,11.05985.20971,17.09471l-44.71974.62972c-1.97729.65985-1.97304,6.43719-.64411,7.93895l33.95351.88901c1.41812,5.34789,1.23342,10.6734.36495,16.33734Z"/>
    <path class="cls-1" d="M461.33058,546.54627c.16811,11.74017-3.58597,22.24079-12.95804,28.62783-7.66782,5.2256-16.7967,8.05269-26.22472,7.96517l-37.32109-.34644.11859-70.35063c13.09012-.70376,25.87576-.38387,39.23044-.2525,5.63965.05548,11.29734,1.75205,16.28424,3.61889,13.09004,4.90025,20.66376,16.29418,20.87058,30.73768ZM437.91074,547.58091c.17865-10.27368-5.5234-18.17375-15.59174-18.78975-5.13538-.31419-10.38112-.50271-15.53319.13569l.01821,37.37635c5.95341.70923,12.17603.67406,18.14141-.38603,8.95596-1.59153,12.80898-9.3464,12.96531-18.33627Z"/>
    <path class="cls-1" d="M650.55039,555.47735c-.81371,3.3835-.66604,6.57931-.01721,10.15725l45.34401.27537c1.4497,4.87693.59131,9.71267.5581,14.76141-.51226.98364-1.40958,2.16089-2.83502,2.15865l-65.74577-.10303-.09144-66.53046c-.00296-2.15571,1.02046-3.78977,3.11256-4.19063l64.60074.33752c1.89856,5.71554,1.61763,11.39486.47828,16.79193l-45.38828.57124c-.72705,2.74586-.75641,5.30638-.25067,8.25419l34.19245.53273c1.4751,5.49019,1.27362,10.94704.44644,16.57383l-34.40419.40999Z"/>
    <path class="cls-1" d="M754.00772,565.34067c4.29485-1.8672,5.6787-7.70338,9.31701-9.5838,5.61206-2.57596,13.0318-.29881,19.18003-.5605,2.20139,6.87743-.69777,13.24826-5.58719,17.97673-14.98609,14.49276-45.15044,14.18418-60.33366,1.98349-9.43942-7.58518-12.60771-19.26802-12.03554-31.06767.79187-16.33034,10.78601-28.7297,26.66639-32.46475,16.59419-3.90294,36.97998-2.33112,47.79559,12.2624,2.42829,3.2765,4.79536,10.01724,2.11332,13.26988-5.9394,2.66516-13.42214.98564-19.60802.65039-3.99841-8.66433-11.1363-12.22076-20.0231-10.48251-7.99314,1.56345-13.44411,8.68945-13.47852,17.81013-.02085,5.52846.10279,11.29789,3.74213,15.80207,5.35138,6.62307,14.62245,7.72093,22.25155,4.40416Z"/>
    <path class="cls-1" d="M594.0466,582.55865c-7.70628.94535-14.57774.55732-22.07781.22757l-.31166-53.04813-23.90502-.39002c-1.18925-5.44601-1.03698-11.15453.31025-17.09711l69.80569.00957c1.45092,5.82613,1.20268,11.46411.12491,16.91752-8.03328,1.25043-15.14009.36826-23.55873.567l-.38763,52.8136Z"/>
    <path class="cls-1" d="M834.96346,582.4685c-7.60659.83178-14.51251.73413-21.9856.03838l-.34673-53.02047-24.01094-.48733c-.89845-5.50132-.86976-10.82109.27738-16.7699l69.81635-.00607c2.13062,5.30366,1.61987,11.0274.60205,16.61138l-24.08439.82158-.26812,52.81244Z"/>
    <rect class="cls-1" x="335.96571" y="470.38478" width="5.99766" height="163.28332"/>
    <g>
      <path class="cls-1" d="M914.30919,570.21156l-31.62791.30628c-1.68762,4.41849-2.80225,8.25928-5.34331,12.02287-7.17039.88876-14.17461.54404-21.4974.28165-.34017-2.49723.20125-4.45902,1.1887-6.6569l27.35033-60.87709c.99156-2.20705,2.98443-3.27727,5.21142-3.27156l19.11158.04893c2.5662.00657,4.41106,1.3463,5.48237,3.75239l26.89149,60.3968c.9844,2.2109,1.62369,4.14168,1.30065,6.48072-7.62789.48131-14.86795.60846-22.59356-.01881-2.25512-3.84094-3.47144-7.21584-5.47435-12.46529ZM906.61617,553.27933c-2.4371-7.1429-4.46578-12.96899-7.76593-19.76832l-8.47789,19.86598c5.52291.28713,10.32782.3885,16.24381-.09767Z"/>
      <path class="cls-3" d="M906.61617,553.27933c-5.916.48616-10.7209.3848-16.24381.09767l8.47789-19.86598c3.30015,6.79933,5.32882,12.62542,7.76593,19.76832Z"/>
    </g>
  </g>
  <g>
    <g>
      <path class="cls-1" d="M418.15946,626.83368c8.60481,4.90751,20.46063-2.85331,19.9108,1.17208-.53299,3.90211-11.06184,3.97916-13.8909,4.15142-8.21346.5001-13.93951-5.21431-13.87796-13.44899.04143-5.54221-.58323-11.94508,3.57609-16.33612,5.38748-5.68761,15.54031-5.87011,21.55214-.97995,4.38718,3.56862,4.99694,9.59513,4.11943,14.29726l-25.01209.56293c-.57642,3.65026.10414,8.57479,3.62248,10.58138ZM435.60212,612.76254c.93569-6.67922-4.0474-11.26461-10.50236-11.05968-3.24586.10305-6.40425.36662-8.40531,3.10778-1.35238,1.85256-2.68883,5.04632-1.8502,7.83264l20.75787.11926Z"/>
      <path class="cls-1" d="M599.45191,631.97442c-6.11388.15614-10.49439-2.10073-11.77181-7.19673-1.13281-4.51908-.04052-10.07491,5.15114-11.8746,5.46924-1.89591,11.17396-.98641,16.96998-1.22946,1.0654-2.80321-.0541-5.56163-1.64239-7.55303-4.83874-6.06682-15.94231,1.4173-19.22728-2.6734,4.92922-3.28506,11.04019-3.88479,16.38254-2.86417,5.07646.96982,8.63664,4.76441,8.79925,9.75577l.53131,16.30916c.08065,2.47566,2.63827,4.1744,2.15113,6.7503-2.68019.81157-3.74992-1.42611-5.25295-4.04448-3.38704,3.12116-6.96408,4.48971-12.09091,4.62064ZM609.69589,614.62229c-5.54607.12658-9.7777-.34164-14.18295.73367-4.23386,1.03348-5.02555,4.98713-4.22762,8.64978.71886,3.2997,3.72095,4.87068,7.6464,4.95668,3.88093.08503,7.5699-.8336,9.3492-3.65686,1.94366-3.08406,2.85541-6.85421,1.41497-10.68328Z"/>
      <path class="cls-1" d="M535.46827,631.25797c-10.52851-3.19495-4.69467-13.94819-20.45807-11.42446-1.18555,3.50719-.10355,7.14343-.65546,10.39556-.15973.92631-3.59578,1.04699-3.89427.12549l-.098-29.71626c6.71003-.25714,13.51133-1.20638,20.36576.07789,4.19196.78542,4.95722,6.17975,5.07894,9.49627.15147,4.12704-2.43739,7.00768-6.53835,9.24312,1.68205,4.63105,5.77647,6.37304,8.53882,9.89699.98032,1.2506-1.52187,2.15349-2.33937,1.90541ZM528.60685,615.55861c3.97892-1.67784,4.20549-9.94417.53534-11.69372-4.54709-2.16758-9.89293-.49097-14.42674-.59157-.2281,5.24385-.52868,8.74595.27117,13.39492,4.54336-.59739,8.96127.85497,13.62022-1.10963Z"/>
      <path class="cls-1" d="M649.32254,622.893c-3.30039,10.79495-18.27338,7.98198-26.73444,8.11868l.16118-30.52161c9.5561.0581,23.07436-4.02836,26.64219,7.68732,1.38918,4.56164,1.48589,9.63011-.06892,14.7156ZM640.29905,603.32512c-4.37636-1.30262-9.15589-.79436-13.46329.31763l.16519,23.81845c5.41334.40265,11.29376,1.12191,15.83689-1.67971,4.88442-3.01209,5.59296-20.03595-2.53879-22.45637Z"/>
      <path class="cls-1" d="M582.02765,608.43668c2.05917,8.12223,1.15528,21.19955-10.04234,22.25038-5.65224.53043-10.88541.61559-16.57338.35983l-.08859-30.46538c9.10835-.11385,23.68328-4.06105,26.7043,7.85517ZM575.80898,624.92748c4.79821-5.18593,4.06289-16.48562-1.15012-20.57543-4.3111-3.38223-10.34839-.87269-15.23579-1.04503l-.12755,24.16222c5.09876.0243,12.20384,2.1161,16.51346-2.54176Z"/>
      <path class="cls-1" d="M468.32858,616.50286c-1.10978-2.49913-10.34541,1.18439-8.80766-3.45964,3.75201-.51557,7.9674-.6455,12.37315-.1473.18347,4.94377,2.08244,10.99525-.45801,15.50157-2.4808,4.4005-9.45338,3.54818-13.84192,3.66032-6.61109.16894-11.4374-3.41449-12.64777-9.93963-1.1422-6.15764-1.81262-13.8655,2.54342-19.03038,5.81946-6.90003,16.512-6.28018,23.91534-1.62745.12943,5.40859-14.98307-4.67025-20.61318,3.36183-3.85368,5.49777-4.3038,16.20511.6065,21.53568,3.37085,3.65936,12.46065,3.44198,15.82241.82147,3.07354-2.39583,2.20107-8.21435,1.10771-10.67648Z"/>
      <path class="cls-1" d="M500.44823,602.13534c.03395-2.04836,2.18865-1.63923,3.9973-1.14672.11822,7.13247.23494,14.43571-.27301,21.92919-.64543,9.52157-11.32348,10.01723-18.35249,8.7703-4.65113-.8251-7.87127-4.3681-8.0801-9.17976-.31222-7.19386-.51801-14.29011-.00457-21.56226.06587-.93289,3.46964-.85334,3.56095.20128.65756,7.59466-.63742,14.94157.59204,22.46087,1.0719,6.55567,13.3419,6.12809,16.13044,3.62493,1.35654-1.21771,2.06788-3.28456,2.10562-5.5614l.32383-19.53645Z"/>
      <path class="cls-1" d="M397.66133,631.46011c-4.5854.53692-17.02076,1.16461-17.89164-2.36384-.15462-.62646.35465-2.64213,1.55213-2.34297,5.84096,1.45922,20.32605,4.96256,20.41864-3.52337.10047-9.20808-23.0704-2.47109-22.01709-15.85939.24831-3.15624,1.7587-6.41954,5.2763-7.80581,5.35206-2.10922,12.24241-2.61173,17.16079,1.51977.86246,4.66221-15.83603-2.98895-18.0772,4.38605-3.79243,12.47969,20.84879,2.58903,21.28259,16.93329.12706,4.20128-2.3642,8.43094-7.70452,9.05626Z"/>
      <rect class="cls-1" x="529.92889" y="613.5862" width="30.64928" height="4.19599" transform="translate(-74.03722 1156.83798) rotate(-89.61959)"/>
      <circle class="cls-1" cx="403.64368" cy="602.30878" r=".49862"/>
      <path class="cls-3" d="M435.60212,612.76254l-20.75787-.11926c-.83863-2.78633.49781-5.98008,1.8502-7.83264,2.00106-2.74115,5.15945-3.00473,8.40531-3.10778,6.45496-.20493,11.43805,4.38046,10.50236,11.05968Z"/>
      <path class="cls-3" d="M609.69589,614.62229c1.44044,3.82907.52869,7.59923-1.41497,10.68328-1.7793,2.82326-5.46827,3.74188-9.3492,3.65686-3.92545-.086-6.92754-1.65699-7.6464-4.95668-.79793-3.66266-.00624-7.61631,4.22762-8.64978,4.40525-1.07531,8.63688-.60709,14.18295-.73367Z"/>
      <path class="cls-3" d="M528.60685,615.55861c-4.65895,1.9646-9.07686.51224-13.62022,1.10963-.79985-4.64897-.49927-8.15107-.27117-13.39492,4.5338.10061,9.87965-1.57601,14.42674.59157,3.67014,1.74955,3.44357,10.01588-.53534,11.69372Z"/>
      <path class="cls-3" d="M640.29905,603.32512c8.13175,2.42041,7.42321,19.44428,2.53879,22.45637-4.54313,2.80162-10.42355,2.08236-15.83689,1.67971l-.16519-23.81845c4.3074-1.11199,9.08694-1.62025,13.46329-.31763Z"/>
      <path class="cls-3" d="M575.80898,624.92748c-4.30962,4.65785-11.4147,2.56606-16.51346,2.54176l.12755-24.16222c4.8874.17234,10.92469-2.3372,15.23579,1.04503,5.21301,4.08982,5.94832,15.38951,1.15012,20.57543Z"/>
    </g>
    <g>
      <path class="cls-1" d="M760.12546,627.43904c8.39757,3.25219,17.90677-2.23182,18.8298.02058,1.79734,4.38593-13.10292,5.03828-19.05179,3.88351-11.15162-2.16471-10.43253-21.01077-5.97075-27.67464,4.65282-6.9492,16.17113-7.34181,22.32356-2.35132,4.31744,3.50205,4.96132,9.16875,4.47896,14.21563l-25.01354.39187c-1.33412,4.06945.02357,9.81803,4.40376,11.51438ZM776.53113,612.37907c.61745-7.22372-4.57851-11.13-10.79019-10.71412-3.16166.21168-6.31988.61995-8.2759,3.14579-1.4755,1.90534-2.76616,4.91336-1.90805,7.8501l20.97414-.28178Z"/>
      <path class="cls-1" d="M719.00573,602.82729c-1.04952,11.61889,2.70965,38.45863-6.59368,25.30902l-15.50091-21.90948-.92778,24.14244c-.70477.71009-3.84862.91124-3.81393-.53235.23574-9.81009-.48835-19.23902.42277-28.93713.12858-1.36858,4.33673-.44897,5.17331.66854,5.42619,7.24831,9.90858,14.35637,16.5805,21.59914,2.04651-4.31321-1.42346-21.89381,2.01215-22.69422,1.42699-.33245,2.82009.44406,2.64756,2.35404Z"/>
      <path class="cls-1" d="M855.01151,630.23718c-4.20382-2.2645-5.39915-7.42217-4.50331-11.46305,3.11145-14.03495,28.79778-.2534,21.71151-13.6712-4.01785-7.60778-21.5314,1.56025-18.77392-4.66462,4.73358-1.93359,10.22538-2.78364,15.30033-1.78146,5.1222,1.01152,8.41955,4.81262,8.52603,10.08879l.31898,15.80601c.05124,2.53902,2.55764,4.19493,2.2584,6.64848-2.55105.82495-3.6478-1.19164-5.3999-3.28323-5.84615,4.05094-13.21887,5.67043-19.43811,2.32027ZM871.24489,625.73011c2.183-3.42924,2.31499-7.06698,2.02338-10.83398-4.95994-.19839-9.89413-.77183-14.79279.47726-4.0443,1.03124-4.82271,5.21915-4.07097,8.72805,1.41108,6.58651,13.99643,6.09617,16.84038,1.62866Z"/>
      <path class="cls-1" d="M809.14648,616.51627c-1.6439-1.71269-6.72422.27259-7.35313-1.55354-1.3149-3.81802,8.06837-1.90755,11.46833-1.81392-.14671,4.9192,2.37972,17.03208-3.94169,17.93422-5.63657.80441-12.36409,1.79934-17.77541-.52746-8.17089-3.51338-8.93927-23.74203-1.47465-29.36321,8.26169-6.22142,21.16145-1.30131,21.46901-.79474.27602.45461.26931,2.1521-.14544,2.54728-1.72389,1.64252-14.00928-4.72571-19.26147,1.64099-4.12136,4.99591-4.50333,16.26828.16842,21.55712,3.45028,3.90602,12.99098,3.42871,16.30465.75691,2.41105-2.68857,1.18022-7.86277.54138-10.38365Z"/>
      <path class="cls-1" d="M840.90414,629.88503l-7.92069-9.407c-1.96736-2.33653-6.86121-.51634-9.78277-.48248-1.16461,3.49042,1.2143,11.48808-1.94857,11.44781-.6845-.00871-2.02545-.38345-2.0186-1.83416l.13817-29.26344c6.67014-.09742,13.35927-.94861,20.13118.31389,4.1661.7767,4.69644,6.33536,4.91918,9.54403.29714,4.28047-2.18253,6.96183-6.33412,9.4375,1.48922,4.01264,4.62874,6.71187,7.36582,9.21987.17919.68144-.83589,1.73659-1.41289,1.86707-.77438.17511-2.32946.11565-3.13671-.84307ZM837.20879,615.56864c4.41165-1.92132,4.24272-10.35608.25001-11.96722-4.62445-1.86607-9.5741-.31846-14.17261-.36968-.47197,4.71598-.51405,8.37958-.02767,13.08977,4.45635.11057,9.20691,1.31291,13.95027-.75287Z"/>
      <path class="cls-1" d="M737.82739,630.27728c-.01265.80658-3.48855.74419-3.56437.07306l-.40425-26.53817c-2.36551-2.23451-12.72005,1.67573-10.28224-3.05957.22309-.43333,1.25967-.56815,2.18925-.5624l21.9518.13579c1.02245.00632,1.10848.5109,1.06589,1.10039-.22098,3.0588-7.52549.32284-10.53372,1.92199l-.42237,26.92891Z"/>
      <path class="cls-1" d="M684.32933,630.58677c-1.1048.6345-2.65884.32759-3.80574.23202l-.34331-30.86247c2.02323.86402,2.91166.34838,4.12705.7234l.022,29.90706Z"/>
      <path class="cls-1" d="M889.58578,627.3311c6.69929,1.13466,12.6957-1.03612,18.99547,2.58916-7.56452,2.2766-14.2448.69138-21.95847,1.33883-.95513-9.68914-.09192-18.66417-.45778-28.49319-.05461-1.46701.72355-2.37485,1.94101-2.35115,1.04299.0203,1.55239.73804,1.54805,2.29988l-.06829,24.61648Z"/>
      <path class="cls-3" d="M776.53113,612.37907l-20.97414.28178c-.85811-2.93674.43255-5.94476,1.90805-7.8501,1.95602-2.52584,5.11424-2.93411,8.2759-3.14579,6.21168-.41589,11.40763,3.4904,10.79019,10.71412Z"/>
      <path class="cls-3" d="M871.24489,625.73011c-2.84395,4.46751-15.4293,4.95785-16.84038-1.62866-.75174-3.5089.02668-7.69682,4.07097-8.72805,4.89866-1.24909,9.83285-.67565,14.79279-.47726.2916,3.767.15961,7.40474-2.02338,10.83398Z"/>
      <path class="cls-3" d="M837.20879,615.56864c-4.74336,2.06578-9.49392.86344-13.95027.75287-.48638-4.71019-.4443-8.37379.02767-13.08977,4.59851.05122,9.54815-1.49638,14.17261.36968,3.99271,1.61114,4.16165,10.0459-.25001,11.96722Z"/>
    </g>
  </g>
</svg>